<!-- Header, footer and general icons are used here -->
<svg xmlns="http://www.w3.org/2000/svg">
    <defs>
        <symbol viewBox="0 0 15.5 15.09" id="search">
            <path d="M15.28,13.81l-3.59-3.59c-.13-.13-.3-.19-.47-.21.79-1.05,1.27-2.35,1.27-3.76,0-3.45-2.8-6.25-6.25-6.25S0,2.8,0,6.25s2.8,6.25,6.25,6.25c1.61,0,3.08-.62,4.19-1.62.03.15.08.29.2.4l3.59,3.59c.15.15.34.22.53.22s.38-.07.53-.22c.29-.29.29-.77,0-1.06ZM6.25,11c-2.62,0-4.75-2.13-4.75-4.75S3.63,1.5,6.25,1.5s4.75,2.13,4.75,4.75-2.13,4.75-4.75,4.75Z"/>
        </symbol>
        <symbol viewBox="0 0 24 24" id="plus">
            <path d="M6 12H12M18 12H12M12 12V6M12 12V18" fill="none" stroke="#fff" stroke-width="1.5" stroke-linecap="round" stroke-linejoin="round">
        </symbol> 

        <symbol viewBox="0 0 24 12" id="arrow">
            <path d="M23.5303 6.53033C23.8232 6.23744 23.8232 5.76256 23.5303 5.46967L18.7574 0.696699C18.4645 0.403806 17.9896 0.403806 17.6967 0.696699C17.4038 0.989593 17.4038 1.46447 17.6967 1.75736L21.9393 6L17.6967 10.2426C17.4038 10.5355 17.4038 11.0104 17.6967 11.3033C17.9896 11.5962 18.4645 11.5962 18.7574 11.3033L23.5303 6.53033ZM0 6.75L23 6.75V5.25L0 5.25L0 6.75Z"/>
        </symbol>
        <symbol viewBox="0 0 24 24" id="arrow-left">
          <path d="M21 12L3 12M3 12L11.5 3.5M3 12L11.5 20.5" fill="none" stroke="#000000" stroke-width="1.5" stroke-linecap="round" stroke-linejoin="round">
        </symbol>

        <symbol viewBox="0 0 7 12" id="chevron">
            <path d="M6.53033 6.53033C6.82322 6.23744 6.82322 5.76256 6.53033 5.46967L1.75736 0.696699C1.46447 0.403805 0.989593 0.403805 0.6967 0.696699C0.403806 0.989592 0.403806 1.46447 0.6967 1.75736L4.93934 6L0.696699 10.2426C0.403805 10.5355 0.403805 11.0104 0.696699 11.3033C0.989592 11.5962 1.46447 11.5962 1.75736 11.3033L6.53033 6.53033ZM5 6.75L6 6.75L6 5.25L5 5.25L5 6.75Z"/>
        </symbol>

        <symbol viewBox="0 0 61 60" id="dvs-logo">
            <path d="M29.0491 31.9491C29.4522 30.8671 29.8274 29.896 30.1749 28.911C30.2444 28.7306 30.2305 28.5087 30.1749 28.3144C29.4939 25.748 30.2444 23.459 31.6065 21.3364C33.2605 18.7699 35.4427 16.7306 38.3198 15.5653C40.1684 14.8301 42.1004 14.6081 44.0601 14.9549C45.1582 15.1491 46.2423 15.4405 47.3264 15.704C48.0492 15.8705 48.3133 16.3561 48.3133 17.0775C48.3133 21.3364 46.3674 24.5272 42.8787 26.8301C39.7792 28.8832 36.3183 29.9653 32.649 30.4092C31.9123 30.4925 31.4397 30.7006 31.3286 31.5052C31.0089 33.8775 30.4946 36.2358 30.3695 38.6081C30.161 42.548 30.2027 46.4879 30.161 50.4416C30.161 51.052 29.9525 51.4682 29.3132 51.5514C28.6599 51.6347 28.3541 51.2462 28.2291 50.6636C28.1874 50.4694 28.1596 50.2613 28.1596 50.0671C28.2291 46.2936 28.2708 42.5341 28.3958 38.7607C28.4375 37.637 28.2708 36.5965 27.826 35.5561C27.5619 34.9457 27.2283 34.7237 26.5195 34.7931C22.5443 35.1121 18.7916 34.4324 15.4697 32.074C12.398 29.8682 10.4243 26.8717 9.18728 23.348C8.9371 22.6543 9.15948 22.141 9.75714 21.7526C12.7038 19.7688 15.8727 19.5052 19.2085 20.5595C23.2115 21.8358 25.7133 24.6936 27.4924 28.3144C28.0484 29.452 28.4792 30.6451 29.0213 31.9353L29.0491 31.9491ZM32.093 25.304L32.371 25.4705C32.4544 25.3179 32.51 25.1514 32.6212 25.0127C34.4698 22.7376 36.7631 20.9757 39.2371 19.4358C40.0989 18.8948 40.7521 18.8809 41.0996 19.4081C41.4749 19.963 41.2108 20.5595 40.2935 21.1283C37.8055 22.6543 35.5539 24.4578 33.7748 26.8023C33.4273 27.2601 33.1354 27.7734 32.7602 28.3422C33.0381 28.3699 33.1354 28.3977 33.2327 28.3838C35.7902 27.9538 38.2642 27.274 40.5437 26.0254C43.6849 24.3052 45.9087 21.9052 46.284 18.1595C46.3396 17.6601 46.2145 17.4104 45.7419 17.2855C43.9072 16.7861 42.017 16.5919 40.1823 17.1052C36.4156 18.1595 33.9555 20.7399 32.371 24.222C32.2181 24.5549 32.1903 24.9433 32.1069 25.3179L32.093 25.304ZM25.8384 32.8786C25.7411 32.6566 25.7272 32.5595 25.6716 32.4902C25.477 32.2682 25.2685 32.0462 25.0601 31.8381C22.9335 29.7988 20.4873 28.2173 17.8603 26.8855C17.0959 26.4971 16.8457 25.9838 17.1376 25.415C17.4017 24.8879 18.0132 24.7491 18.6943 25.1514C20.2927 26.0809 21.8772 27.0243 23.4339 28.0092C24.24 28.5225 24.9628 29.1329 25.7272 29.7017C25.7689 29.4104 25.7272 29.2162 25.6438 29.0497C24.6987 27.2462 23.6007 25.526 21.9745 24.2775C18.9445 21.9329 15.6087 21.2809 11.981 22.7792C11.425 23.015 11.2721 23.2925 11.5084 23.8613C12.3285 25.8173 13.4404 27.5792 14.9693 29.0636C17.9715 31.9769 21.6131 33.0728 25.8384 32.8925V32.8786Z"/>
            <path d="M30.0499 60C13.4821 60 0 46.5434 0 29.9931C0 13.4428 13.4821 0 30.0499 0C46.6176 0 60.0997 13.4566 60.0997 29.9931C60.0997 46.5295 46.6176 59.9861 30.0499 59.9861V60ZM30.0499 2.02543C14.5941 2.02543 2.02927 14.5665 2.02927 29.9931C2.02927 45.4197 14.608 57.9746 30.0638 57.9746C45.5196 57.9746 58.0983 45.4197 58.0983 29.9931C58.0983 14.5665 45.5196 2.02543 30.0499 2.02543Z"
                  fill="#034852"/>
        </symbol>
        <symbol viewBox="0 0 34 32" id="plant">
            <path d="M17.2771 14.9199C17.6265 13.9784 17.9518 13.1334 18.253 12.2764C18.3132 12.1195 18.3012 11.9263 18.253 11.7573C17.6626 9.52421 18.3132 7.53251 19.494 5.68566C20.9277 3.45254 22.8193 1.67812 25.3132 0.664162C26.9277 0.0244038 28.6024 -0.168731 30.3132 0.145113C31.265 0.314106 32.2048 0.567595 33.1446 0.796942C33.7711 0.941793 34 1.36428 34 1.99196C34 5.69773 32.3132 8.47405 29.2891 10.4778C26.6024 12.2643 23.6024 13.2058 20.4217 13.5921C19.7831 13.6645 19.3735 13.8456 19.2771 14.5457C19 16.6098 18.5542 18.6619 18.4458 20.726C18.265 24.1542 18.3012 27.5823 18.265 31.0225C18.265 31.5536 18.0843 31.9158 17.5301 31.9882C16.9638 32.0606 16.6988 31.7226 16.5903 31.2157C16.5542 31.0467 16.5301 30.8656 16.5301 30.6966C16.5903 27.4133 16.6265 24.1421 16.7349 20.8588C16.7711 19.8811 16.6265 18.9757 16.2409 18.0704C16.012 17.5393 15.7229 17.3462 15.1084 17.4065C11.6626 17.6842 8.40963 17.0927 5.53011 15.0406C2.86746 13.1213 1.16866 10.514 0.0843231 7.44802C-0.132544 6.84447 0.0602267 6.39785 0.578299 6.05986C3.13252 4.33372 5.8795 4.10437 8.77107 5.02176C12.241 6.13229 14.4096 8.6189 15.9518 11.7694C16.4337 12.7592 16.8072 13.7973 17.2771 14.9199ZM19.9156 9.13795L20.1566 9.2828C20.2289 9.15002 20.2771 9.00517 20.3735 8.88446C21.9759 6.90483 23.9638 5.37182 26.1084 4.03195C26.8554 3.56118 27.4217 3.54911 27.7229 4.00781C28.0482 4.49064 27.8193 5.00969 27.0241 5.5046C24.8675 6.8324 22.9156 8.40162 21.3735 10.4416C21.0723 10.8399 20.8193 11.2866 20.494 11.7815C20.7349 11.8056 20.8193 11.8298 20.9036 11.8177C23.1205 11.4435 25.265 10.852 27.241 9.76563C29.9638 8.26884 31.8916 6.18057 32.2169 2.92142C32.265 2.48687 32.1566 2.26959 31.747 2.16096C30.1566 1.7264 28.5181 1.55741 26.9277 2.00403C23.6626 2.92142 21.5301 5.16661 20.1566 8.19641C20.0241 8.48612 20 8.8241 19.9277 9.15002L19.9156 9.13795ZM14.494 15.7287C14.4096 15.5355 14.3976 15.451 14.3494 15.3907C14.1807 15.1975 14 15.0044 13.8193 14.8233C11.9759 13.0489 9.85541 11.6728 7.5783 10.514C6.91565 10.176 6.69878 9.72942 6.95179 9.23451C7.18071 8.77582 7.71083 8.65511 8.30119 9.00517C9.68673 9.81392 11.0602 10.6347 12.4096 11.4918C13.1084 11.9384 13.7349 12.4695 14.3976 12.9644C14.4337 12.7109 14.3976 12.5419 14.3253 12.3971C13.506 10.8279 12.5542 9.33108 11.1446 8.2447C8.51806 6.20471 5.62649 5.63738 2.48191 6.94104C1.99999 7.14625 1.86746 7.38766 2.07228 7.88257C2.78312 9.58457 3.74697 11.1176 5.07228 12.4092C7.67469 14.9441 10.8313 15.8977 14.494 15.7407V15.7287Z"/>
        </symbol>
        <symbol viewBox="0 0 16.08 20.09" id="user">
            <path d="M8.04,10.3c-2.86,0-5.2-2.31-5.2-5.15S5.17,0,8.04,0s5.2,2.31,5.2,5.15-2.33,5.15-5.2,5.15ZM8.04,1.5c-2.04,0-3.7,1.64-3.7,3.65s1.66,3.65,3.7,3.65,3.7-1.64,3.7-3.65-1.66-3.65-3.7-3.65ZM16.08,20.09H0v-.75c0-2.62,1.04-7.02,8.04-7.02s8.04,4.4,8.04,7.02v.75ZM1.53,18.59h13.01c-.29-3.17-2.47-4.77-6.51-4.77s-6.22,1.6-6.51,4.77Z"/>
        </symbol>
        <symbol viewBox="0 0 10 10" id="cancel">
            <path d="M4.29,5L.15.85s-.08-.1-.11-.16C.01.63,0,.57,0,.5s.01-.13.04-.19c.03-.06.06-.12.11-.16.05-.05.1-.08.16-.11C.37.01.43,0,.5,0s.13.01.19.04c.06.03.12.06.16.11l4.15,4.15L9.15.15c.09-.09.22-.15.35-.15s.26.05.35.15c.09.09.15.22.15.35s-.05.26-.15.35l-4.15,4.15,4.15,4.15c.09.09.15.22.15.35s-.05.26-.15.35c-.09.09-.22.15-.35.15s-.26-.05-.35-.15l-4.15-4.15L.85,9.85c-.09.09-.22.15-.35.15s-.26-.05-.35-.15c-.09-.09-.15-.22-.15-.35s.05-.26.15-.35l4.15-4.15Z"/>
        </symbol>
        <symbol viewBox="0 0 11.05 6.27" id="chevron-down">
            <path d="M4.99,6.05c.29.29.77.29,1.06,0L10.83,1.28c.29-.29.29-.77,0-1.06-.29-.29-.77-.29-1.06,0l-4.24,4.24L1.28.22C.99-.07.51-.07.22.22c-.29.29-.29.77,0,1.06l4.77,4.77ZM4.77,4.52v1h1.5v-1h-1.5Z"/>
        </symbol>
        <symbol viewBox="0 0 20 18" id="favorite">
            <path d="M17.4182 1.87749L17.4198 1.87888C19.9698 4.07825 19.6252 7.70808 17.7951 9.66107L10.9255 16.8348C10.9248 16.8355 10.9241 16.8363 10.9234 16.837C10.6548 17.1118 10.3346 17.25 10.0171 17.25C9.65338 17.25 9.33504 17.1061 9.07237 16.8376L2.23794 9.65982L2.23684 9.65867C0.371224 7.70764 0.0247842 4.0787 2.57534 1.87888L2.57534 1.87889L2.57694 1.87749C4.50942 0.201181 7.53389 0.40233 9.47521 2.43122L10.022 3.00268L10.5636 2.42632C12.4624 0.40582 15.4835 0.199282 17.4182 1.87749Z"
                  fill="black" stroke="black" stroke-width="1.5"/>
        </symbol>
        <symbol viewBox="0 0 16.5 19.5" id="social-share">
            <path d="M13.25,0c-.48,0-.95.1-1.38.31-.43.2-.81.49-1.12.86-.31.36-.53.79-.65,1.25s-.14.94-.06,1.41l-4.73,3.31-.07.05c-.48-.38-1.06-.61-1.66-.67-.61-.06-1.22.04-1.76.31-.55.27-1.01.68-1.33,1.2-.32.52-.49,1.11-.49,1.72s.17,1.21.49,1.72c.32.52.78.93,1.33,1.2.55.27,1.16.37,1.76.31.61-.06,1.18-.3,1.66-.67l.07.05,4.73,3.31c-.03.19-.05.38-.05.57,0,.77.27,1.52.77,2.1.5.59,1.19.98,1.95,1.1.76.12,1.54-.02,2.2-.42.66-.4,1.16-1.02,1.41-1.75.25-.73.23-1.52-.06-2.24-.28-.72-.81-1.31-1.49-1.67-.68-.36-1.47-.47-2.22-.31-.75.16-1.42.59-1.89,1.2l-4.48-3.14c.2-.42.31-.89.31-1.39s-.11-.97-.31-1.39l4.48-3.14c.34.44.78.79,1.28,1.01.51.22,1.06.31,1.61.26.55-.05,1.08-.25,1.53-.56.46-.31.82-.74,1.07-1.23.24-.5.36-1.05.33-1.6-.03-.55-.19-1.09-.49-1.56-.29-.47-.7-.86-1.18-1.13C14.35.14,13.8,0,13.25,0ZM11.5,3.25c0-.46.18-.91.51-1.24.33-.33.77-.51,1.24-.51s.91.18,1.24.51c.33.33.51.77.51,1.24s-.18.91-.51,1.24c-.33.33-.77.51-1.24.51s-.91-.18-1.24-.51c-.33-.33-.51-.77-.51-1.24ZM3.25,8c-.46,0-.91.18-1.24.51-.33.33-.51.77-.51,1.24s.18.91.51,1.24c.33.33.77.51,1.24.51s.91-.18,1.24-.51c.33-.33.51-.77.51-1.24s-.18-.91-.51-1.24c-.33-.33-.77-.51-1.24-.51ZM13.25,14.5c-.46,0-.91.18-1.24.51s-.51.77-.51,1.24.18.91.51,1.24.77.51,1.24.51.91-.18,1.24-.51c.33-.33.51-.77.51-1.24s-.18-.91-.51-1.24c-.33-.33-.77-.51-1.24-.51Z"
                  fill-rule="evenodd"/>
        </symbol>
        <symbol viewBox="0 0 18.64 24.41" id="location">
            <path d="M9.32,24.41c-.21,0-.41-.09-.56-.25-1.28-1.42-2.53-2.9-3.7-4.4l-.68-.9C1.43,14.89,0,11.79,0,9.37,0,4.2,4.18,0,9.32,0s9.32,4.2,9.32,9.37c0,2.42-1.43,5.52-4.38,9.49l-.68.9c-.83,1.07-1.77,2.21-2.79,3.38l-.9,1.02c-.14.16-.32.26-.56.25ZM9.32,1.5C5.01,1.5,1.5,5.03,1.5,9.37c0,2.06,1.37,4.95,4.08,8.6l.67.89c.97,1.25,2,2.48,3.06,3.68l.34-.39c1-1.15,1.92-2.26,2.73-3.3l.67-.89c2.71-3.65,4.08-6.54,4.08-8.59,0-4.34-3.51-7.87-7.82-7.87ZM9.32,13.64c-2.38,0-4.32-1.94-4.32-4.32s1.94-4.32,4.32-4.32,4.32,1.94,4.32,4.32-1.94,4.32-4.32,4.32ZM9.32,6.5c-1.56,0-2.82,1.27-2.82,2.82s1.27,2.82,2.82,2.82,2.82-1.27,2.82-2.82-1.27-2.82-2.82-2.82Z"/>
        </symbol>
        <symbol viewBox="0 0 17 17" id="edit-pencil">
            <path d="M16.71,4.04l-2.34,2.33-3.75-3.75L12.96.29c.39-.39,1.04-.39,1.41,0l2.34,2.34c.39.37.39,1.02,0,1.41ZM0,13.25L10.06,3.18l3.75,3.75L3.75,17H0v-3.75ZM13.62,1.04l-1.54,1.54,2.34,2.34,1.54-1.54-2.34-2.34ZM12.36,7l-2.36-2.36L1,13.66v2.34h2.34L12.36,7Z"/>
        </symbol>
    </defs>
</svg>
